<?xml version="1.0" encoding="iso-8859-1"?>
<!-- Generator: Adobe Illustrator 16.0.0, SVG Export Plug-In . SVG Version: 6.00 Build 0)  -->
<!DOCTYPE svg PUBLIC "-//W3C//DTD SVG 1.1//EN" "http://www.w3.org/Graphics/SVG/1.1/DTD/svg11.dtd">
<svg xmlns="http://www.w3.org/2000/svg" xmlns:xlink="http://www.w3.org/1999/xlink" version="1.1" id="Capa_1" x="0px" y="0px" width="512px" height="512px" viewBox="0 0 222.505 222.504" style="enable-background:new 0 0 222.505 222.504;" xml:space="preserve">
<g>
	<path d="M178.082,27.119c-12.466-13.917-28.934-26.832-69.629-27.116C92.541-0.124,68.266,3.638,49.375,23.614   C37.943,35.677,29.526,50.918,31.92,75.829c0.526,5.406,8.246,11.659,2.813,22.091c0,0-11.65,20.502-11.242,23.912   c0,0-0.201,6.236,9.445,6.432c0,0,2.412,0.312,1.714,5.627l-0.106,7.748c0,0,0.295,2.306,4.527,3.707c0,0,0.798,0.804-0.402,2.322   c0,0-2.229,2.477,1.596,7.832c1.418,1.95,3.718,4.409,2.311,9.457c0,0-1.803,9.729,2.016,12.059c0,0,4.345,5.153,21.805,2.996   c6.106-0.75,17.389-3.706,24.116,4.734c0,0,16.06,30.535,17.289,37.758c0,0,27.426-48.822,60.898-56.358   c0,0-8.163-18.389,8.435-42.203c0,0,20.788-27.432,21.409-42.501C198.533,81.441,204.024,56.049,178.082,27.119z M135.802,91.046   c-12.507-5.37-15.977-19.642-35.647-17.626c-23.312,2.397-35.417,0.751-41.494-3.431c3.588-4.442,8.89-9.504,15.569-11.5   c5.958-1.782,12.212-0.824,18.607,2.855c1.436,0.842,3.298,0.34,4.131-1.114c0.833-1.451,0.337-3.299-1.111-4.141   c-7.903-4.552-15.77-5.695-23.395-3.399c-7.731,2.323-13.766,7.764-17.904,12.708c-2.151-4.386-1.578-10.066-0.609-16.367   c3.103-20.111,29.855-33.55,62.329-31.218c24.92,1.768,46.896,14.133,57.14,31.062c-2.523-1.023-5.243-1.718-8.15-1.652   c-6.97,0.213-13.151,4.451-18.383,12.607c-0.893,1.41-0.497,3.28,0.916,4.182c1.401,0.889,3.28,0.491,4.173-0.914   c4.085-6.366,8.606-9.673,13.465-9.823c4.652-0.077,9.05,2.574,12.365,5.331c0.668,2.223,1.235,4.469,1.508,6.78   C183.094,97.17,155.633,99.573,135.802,91.046z" fill="#FFFFFF"/>
</g>
<g>
</g>
<g>
</g>
<g>
</g>
<g>
</g>
<g>
</g>
<g>
</g>
<g>
</g>
<g>
</g>
<g>
</g>
<g>
</g>
<g>
</g>
<g>
</g>
<g>
</g>
<g>
</g>
<g>
</g>
</svg>
